<svg id="svg" version="1.1" viewBox="0 0 300 273.7160120845922" width="300" height="273.7160120845922" xmlns="http://www.w3.org/2000/svg"><svg xmlns="http://www.w3.org/2000/svg"><defs><clipPath id="clip-1"><rect x="0" y="0" transform="scale(0.22659,0.22659)" width="1324" height="1208" fill="none"/></clipPath></defs><g clip-path="url(#clip-1)" fill="none" fill-rule="nonzero" stroke="none" stroke-width="1" stroke-linecap="butt" stroke-linejoin="miter" stroke-miterlimit="10" stroke-dasharray="" stroke-dashoffset="0" font-family="none" font-weight="none" font-size="none" text-anchor="none" style="mix-blend-mode: normal"><path d="M133.56911,21.06852c4.78912,-0.26051 12.40468,7.99931 15.70514,11.6052c31.79977,34.74086 52.31352,83.10023 51.77651,130.46737c-0.23452,20.69434 -6.59773,46.20725 -21.80846,60.93535c-11.64222,11.09275 -27.15317,17.20831 -43.23399,17.0429c-10.40461,0.02492 -20.91979,-1.57251 -30.37704,-5.9864c-14.42175,-6.7364 -26.54298,-21.01269 -31.46828,-36.37591c-18.68066,-58.26911 7.80634,-127.12863 48.81344,-169.65227c2.88693,-2.99366 6.8216,-6.64745 10.59267,-8.03624z" fill="#5c351a"/><path d="M134.20514,29.30461c2.1111,1.45514 11.23686,10.65816 12.4577,12.79872c2.60166,2.07689 9.51027,11.37077 11.49403,14.1784c18.47085,25.771 30.17538,55.76692 34.04071,87.23701c4.26276,37.55937 -4.75695,84.98656 -50.1281,89.64063c-15.21299,1.56118 -30.53882,-1.25529 -42.74479,-10.87273c-3.91178,-3.07523 -10.42863,-10.16556 -12.26193,-14.73127c-1.33074,-1.5392 -3.12168,-5.52598 -3.95619,-7.3858c-5.68142,-12.6639 -7.4429,-27.84471 -7.20544,-41.78565c0.64282,-37.70234 14.94585,-74.78565 37.03051,-105.07998c6.52613,-8.95242 13.42228,-16.33074 21.27349,-23.99932z" fill="#be7639"/><path d="M146.66284,42.10332c2.60166,2.07689 9.51027,11.37077 11.49403,14.1784c18.47085,25.771 30.17538,55.76692 34.04071,87.23701c4.26276,37.55937 -4.75695,84.98656 -50.1281,89.64063c-15.21299,1.56118 -30.53882,-1.25529 -42.74479,-10.87273c-3.91178,-3.07523 -10.42863,-10.16556 -12.26193,-14.73127c2.12356,0.51027 4.48323,3.27258 6.67613,4.46715c11.90415,6.48331 24.19736,7.48097 37.16715,3.73097c12.28414,-3.67727 22.98172,-11.36465 30.38497,-21.83452c2.45257,-3.44207 4.90582,-7.93482 6.96911,-11.67077c3.91405,-8.80808 3.22772,-23.64267 3.23678,-33.27621c0.00408,-4.30514 -2.75778,-11.68573 3.94622,-10.85687c0.254,-0.03671 0.43459,-0.12938 0.67591,-0.22432c0.29615,-0.58505 -0.60295,-8.84048 -0.73391,-10.05408c-2.31095,-21.41103 -8.98844,-42.72893 -17.88218,-62.21782c-2.25725,-4.87205 -4.55619,-9.72485 -6.8966,-14.55748c-1.13157,-2.36873 -3.22024,-6.52772 -3.9435,-8.95808z" fill="#a5612b"/><path d="M168.26012,182.24819c3.91405,-8.80808 3.22772,-23.64267 3.23678,-33.27621c0.00408,-4.30514 -2.75778,-11.68573 3.94622,-10.85687c1.01329,0.38814 1.70461,0.98474 2.50808,1.72115c1.82787,16.05612 0.30793,35.42832 -3.84607,51.08542c-1.00423,3.7858 -8.75891,26.28807 -15.42009,21.11896c-2.92432,-2.26926 3.04147,-8.94834 3.92855,-11.59079c1.76284,-3.81073 6.91631,-14.19675 5.64653,-18.20166z" fill="#8f5223"/><path d="M114.50937,65.09751c4.2392,0.51979 4.6287,2.44804 3.02719,6.03263c-16.03187,35.8815 -25.31896,76.70257 -17.66737,115.83784c0.6963,3.56148 0.64192,4.60627 -2.70838,6.05257c-2.2364,0.15408 -3.42644,-1.04275 -3.83905,-3.14683c-7.78686,-39.71601 0.04079,-81.37183 16.25869,-118.01715c1.04388,-2.35876 2.23323,-6.24902 4.92893,-6.75906z" fill="#8f5223"/><path d="M149.56382,105.3648c2.77998,-0.21956 3.94328,-0.18512 4.72409,2.83165c7.27523,28.10914 6.65982,58.28474 -0.54766,86.35038c-0.45793,1.78346 -1.01601,3.21911 -2.65514,4.13044c-2.28195,0.20642 -5.3923,-0.32175 -4.55008,-3.46541c5.73059,-21.38905 7.4685,-42.80076 4.85325,-64.84147c-0.38316,-3.15136 -0.82998,-6.29479 -1.34026,-9.42825c-0.63399,-3.68293 -2.35378,-9.86284 -2.4818,-13.64887c-0.02198,-0.64396 1.40302,-1.55166 1.99758,-1.92847z" fill="#8f5223"/><path d="M122.68844,86.77364c3.01541,-0.17334 3.87553,0.18036 4.9756,3.06367c-5.15234,20.45438 -7.75355,41.46775 -7.74403,62.5611c0.01337,3.70106 0.14955,7.40076 0.40831,11.09275c0.19373,2.77296 0.53724,5.92681 0.4355,8.64653c-0.71307,1.10846 -0.96548,1.49456 -2.08573,2.15076c-2.92341,0.28912 -4.43225,0.05506 -4.8068,-3.26307c-3.01903,-26.73353 0.44864,-53.98482 6.30544,-80.10816c0.40332,-1.79819 0.9852,-3.14977 2.51171,-4.14358z" fill="#8f5223"/></g></svg></svg>