<svg id="svg" version="1.1" viewBox="0 0 300 213.97058823529414" width="300" height="213.97058823529414" xmlns="http://www.w3.org/2000/svg"><svg xmlns="http://www.w3.org/2000/svg"><defs><clipPath id="clip-1"><rect x="0" y="0" transform="scale(0.18382,0.18382)" width="1632" height="1164" fill="none"/></clipPath></defs><g clip-path="url(#clip-1)" fill="none" fill-rule="nonzero" stroke="none" stroke-width="1" stroke-linecap="butt" stroke-linejoin="miter" stroke-miterlimit="10" stroke-dasharray="" stroke-dashoffset="0" font-family="none" font-weight="none" font-size="none" text-anchor="none" style="mix-blend-mode: normal"><path d="M147.07978,20.8511c1.8943,-0.22868 5.27096,-0.06636 7.23051,-0.02849c7.14099,0.13805 14.15423,0.88327 21.17335,2.10221c17.49246,3.0375 33.95386,9.90349 44.31415,25.08493c11.77757,17.06949 15.1875,38.45074 11.54779,58.55404c-5.17463,28.58088 -26.8125,48.29449 -52.11489,60.02151c-7.81581,3.62243 -17.8954,7.33805 -24.86912,12.2432c-1.0193,0.72132 -1.90184,1.14688 -3.06379,1.57482c-2.54099,-0.55221 -7.65165,-4.32077 -10.45312,-5.65496c-15.81085,-7.5296 -30.88585,-13.74485 -44.2932,-25.28217c-21.57941,-18.56985 -30.79724,-46.52757 -25.1636,-74.30956c8.3511,-40.79412 38.15735,-52.22096 75.69191,-54.30551z" fill="#5c3218"/><path d="M208.97426,45.46471c23.13603,24.43511 22.70221,65.78364 1.09007,91.05368c-2.8125,3.28952 -5.85846,6.26857 -8.92096,9.3204c-2.30331,-6.27776 -5.80331,-5.6432 -11.55699,-4.49761c-2.27022,0.45202 -4.74081,1.12243 -7.00496,1.51563c-0.1693,-0.47096 -0.35515,-0.96176 -0.5125,-1.43419c-1.1,-3.25588 -2.92096,-6.02114 -5.68732,-8.07721c1.5307,-3.44118 2.76121,-7.00809 3.67794,-10.66103c1.00956,-4.01489 4.15551,-21.5079 2.31158,-24.36526c-0.43162,-0.66893 -1.25754,-1.06397 -2.01415,-1.2364c-0.83989,-0.19154 -1.87279,-0.17426 -2.60276,0.33713c-0.68401,0.47923 -0.86746,1.34044 -1.01875,2.11305c-0.43143,2.20404 -0.32206,4.62335 -0.44228,6.86654c-0.1739,3.03107 -0.54118,6.04798 -1.09926,9.03235c-1.08419,5.7796 -3.38529,15.70074 -7.25625,20.20937c-0.85313,0.99375 -4.62132,3.07684 -6.00092,4.02022c-1.84669,-2.63015 -7.52757,-8.93548 -11.06268,-8.52353c-3.89062,0.45349 -7.9386,5.77923 -10.34026,8.60368c-9.96066,-5.79099 -16.30754,-11.34908 -20.43934,3.48015c-2.92445,-1.47114 -10.66581,-2.59412 -14.05331,-2.60882c-2.2079,1.49007 -2.88621,3.30551 -3.67996,5.7614c-1.81838,-1.80165 -3.65294,-3.25809 -5.58676,-5.25092c-13.8011,-14.22243 -20.79265,-31.67335 -20.43603,-51.49504c0.28621,-15.91029 5.75938,-32.78805 17.50643,-43.99357c2.91471,2.8079 9.67849,6.375 13.65404,7.96838c22.36011,8.96213 50.42224,9.08713 73.76636,4.47941c4.59504,-0.90717 9.60055,-2.67518 13.81195,-4.35772c6.73346,-2.94301 8.25,-3.97941 13.89706,-8.26011z" fill="#9f552f"/><path d="M208.97426,45.46471c23.13603,24.43511 22.70221,65.78364 1.09007,91.05368c-2.8125,3.28952 -5.85846,6.26857 -8.92096,9.3204c-2.30331,-6.27776 -5.80331,-5.6432 -11.55699,-4.49761c-2.27022,0.45202 -4.74081,1.12243 -7.00496,1.51563c-0.1693,-0.47096 -0.35515,-0.96176 -0.5125,-1.43419l0.31342,-0.0989c1.00643,-1.43107 3.12132,-3.40404 4.33456,-4.89706c2.48897,-3.06489 4.42463,-6.13529 6.25919,-9.61213c10.09926,-19.13364 11.61765,-39.05165 6.45956,-59.88603c-1.15993,-4.68621 -2.96324,-8.69118 -4.35846,-13.20368c6.73346,-2.94301 8.25,-3.97941 13.89706,-8.26011z" fill="#8a4725"/><path d="M98.72243,69.10147l0.33621,-0.00754c1.64982,-0.02261 2.80643,0.81765 3.92482,1.92298c-0.30993,2.77684 -1.27629,6.25643 -1.86838,9.06875c-1.3954,6.34338 -1.63511,12.8864 -0.70735,19.31489c0.88585,6.35055 2.5489,12.40257 5.08199,18.30165c1.09228,2.54375 2.15993,4.50717 -0.79614,6.06029c-1.24246,0.16893 -2.42114,0.47206 -3.2739,-0.63713c-1.46875,-1.91029 -2.41857,-4.32132 -3.24779,-6.56121c-3.68033,-9.74963 -5.16562,-20.19081 -4.35018,-30.58015c0.37923,-4.53217 1.41379,-9.35331 2.73511,-13.73015c0.40717,-1.34835 1.09761,-2.25074 2.16562,-3.15239z" fill="#5c3218"/><path d="M98.39136,41.17151c7.18419,-4.81195 14.17647,-8.3489 22.70276,-10.28824c13.91029,-3.16379 28.54926,-4.55717 42.74651,-2.7682c2.54798,-0.01765 7.1182,0.6171 9.64301,1.05551c10.80496,1.87684 21.76636,5.23456 30.56967,11.98272c-3.25368,2.27187 -8.15809,5.74154 -11.92831,6.89485c-7.07537,3.21489 -20.49063,5.40846 -28.21103,6.17941c-18.76912,1.87426 -50.71636,-0.64118 -65.52261,-13.05607z" fill="#ce9c6a"/><path d="M163.84063,28.11507c2.54798,-0.01765 7.1182,0.6171 9.64301,1.05551c10.80496,1.87684 21.76636,5.23456 30.56967,11.98272c-3.25368,2.27187 -8.15809,5.74154 -11.92831,6.89485c-6.23713,-7.96434 -10.11654,-12.15074 -19.81029,-16.25643c-2.23033,-0.94449 -5.30901,-1.97739 -7.45827,-3.07665c-0.13897,-0.07096 -0.60404,-0.40184 -1.01581,-0.6z" fill="#b07950"/><path d="M151.18713,137.2693c3.4932,2.09154 6.51342,7.96581 9.10276,8.75404c3.62978,1.10533 10.65643,-4.3807 14.03805,-6.39798c1.10533,1.44283 2.8386,5.7239 3.75864,7.64504c0.30956,0.49301 1.13235,1.87629 1.6454,1.87941c5.10257,0.02996 10.70919,-2.45919 15.9739,-1.79706c0.05147,0.84614 0.13971,1.86838 0.14154,2.70147c-8.18015,6.01489 -21.19816,11.51967 -30.47224,15.91415c-4.8886,2.31654 -9.8739,4.4125 -14.42831,7.43162l-1.02096,-0.84669c-3.84798,-2.625 -8.95956,-4.52096 -13.13125,-6.60974c-9.56893,-4.79099 -20.22941,-9.04926 -28.89044,-15.39136c-0.03199,-1.18585 0.08015,-1.86195 0.2443,-3.02022c4.67996,-0.38787 10.4568,1.69963 14.80827,1.45717c1.70496,-0.09485 3.67904,-7.23051 4.92022,-9.32794c3.57004,1.18842 11.69136,8.85919 15.7171,5.80662c2.4568,-1.86287 4.9011,-6.05055 7.59301,-8.19853z" fill="#ce9c6a"/><path d="M178.08658,147.2704c0.30956,0.49301 1.13235,1.87629 1.6454,1.87941c5.10257,0.02996 10.70919,-2.45919 15.9739,-1.79706c0.05147,0.84614 0.13971,1.86838 0.14154,2.70147c-8.18015,6.01489 -21.19816,11.51967 -30.47224,15.91415c-4.8886,2.31654 -9.8739,4.4125 -14.42831,7.43162l-1.02096,-0.84669c1.31967,-2.15551 3.91636,-4.18217 5.82059,-5.97739c5.74154,-5.49761 11.69522,-10.76912 17.84761,-15.80239c0.83676,-0.69136 4.13566,-2.87353 4.49246,-3.50313z" fill="#b07950"/></g></svg></svg>