<svg id="svg" version="1.1" viewBox="0 0 300 247.112462006079" width="300" height="247.112462006079" xmlns="http://www.w3.org/2000/svg"><svg xmlns="http://www.w3.org/2000/svg"><defs><clipPath id="clip-1"><rect x="0" y="0" transform="scale(0.22796,0.22796)" width="1316" height="1084" fill="none"/></clipPath></defs><g clip-path="url(#clip-1)" fill="none" fill-rule="nonzero" stroke="none" stroke-width="1" stroke-linecap="butt" stroke-linejoin="miter" stroke-miterlimit="10" stroke-dasharray="" stroke-dashoffset="0" font-family="none" font-weight="none" font-size="none" text-anchor="none" style="mix-blend-mode: normal"><path d="M118.49726,14.89359c2.7693,-0.53312 6.49263,0.32592 9.17895,0.98783c2.7693,0.68241 9.37158,5.33701 10.40312,7.68773c0.5633,-0.05198 2.24977,-2.0511 2.79894,-2.60357c6.17257,-6.20922 15.57378,-7.58749 23.71345,-4.95084c22.9826,7.50951 38.21284,29.38648 46.6696,51.01566c4.19065,10.71816 6.24369,17.14309 3.00365,28.35638c1.47789,2.19916 3.92097,5.6364 4.91672,8.02181c2.7905,6.76049 2.68017,16.35707 -0.72834,22.8041c-2.48708,4.70426 -5.2826,5.45015 -1.77743,10.71907c0.5804,0.87242 1.59711,3.31824 1.9696,4.37804c0.7671,2.20828 1.20889,4.51641 1.31147,6.8519c0.2095,4.73708 -0.56763,9.78647 -3.09438,13.80137c-0.944,1.5 -2.06011,3.53298 -2.66991,5.20532c-0.95653,2.62409 -0.60137,6.27105 -1.0997,8.89787c-2.59286,13.66869 -11.86482,29.6079 -23.06535,37.88845c-7.6598,5.66307 -16.56223,7.92994 -25.92971,6.66862c-5.82606,-0.78442 -10.73663,-5.06877 -14.08153,-9.66793c-1.09445,-1.50957 -1.99172,-3.15228 -2.67036,-4.88891c-0.47052,-1.18883 -1.43685,-4.7421 -2.06854,-5.50304c-2.61998,0.2519 -4.91261,8.15859 -8.83222,4.77834c-2.11345,-1.82257 -3.55874,-3.86147 -5.82105,-5.51809c-0.07249,0.68777 -0.08275,1.44962 -0.19901,2.12622c-1.2522,7.29119 -8.44582,16.54673 -15.8095,18.13678c-30.7924,6.64833 -50.36672,-27.00843 -52.88275,-53.13511c-1.15418,-3.33465 -3.44043,-5.67606 -4.41565,-9.16413c-0.78807,-2.81854 -0.86307,-4.8269 -0.88062,-7.77242c-0.02416,-4.01603 0.26991,-7.82827 2.03161,-11.51011c0.89407,-1.86884 2.32135,-3.56786 3.30228,-5.44719l0.11079,-0.2152c-1.08989,-2.23359 -3.21771,-4.7503 -4.38579,-7.27386c-3.4557,-7.46626 -3.16527,-16.47857 0.13929,-23.94939c1.12865,-2.5516 3.43313,-4.67827 4.20365,-6.7541c0.09552,-2.24179 -0.95243,-5.41527 -1.29802,-7.56679c-0.89453,-5.56892 1.00578,-10.18245 2.73989,-15.40304c7.87591,-23.71185 24.43678,-47.7734 49.12591,-55.84942c1.75783,-0.57495 4.22508,-0.87399 6.09096,-1.15236z" fill="#5b3317"/><path d="M120.64286,22.89757c0.3367,0.0098 0.6734,0.02713 1.00965,0.05198c6.62371,0.50243 9.95699,5.26824 13.53351,9.98845c0.67181,0.88678 1.60213,1.48199 2.76429,1.5424c4.60691,0.16983 5.99658,-5.5019 9.24757,-8.18389c7.14027,-5.89087 15.20334,-3.0734 22.40061,0.89179c7.03131,3.87378 12.34628,8.36216 17.60904,14.38427c2.43397,2.76702 4.66733,5.70456 6.68298,8.78959c5.47842,8.48321 13.16786,24.01003 14.11892,34.27181c0.36087,3.89248 -1.7804,8.84407 -2.01109,12.49856l-0.00616,0.10532c1.77492,2.99202 4.16125,5.51421 5.58556,8.73556c2.71983,6.15046 2.23837,12.88062 -1.14962,18.64286c-1.47743,2.51261 -4.0272,5.20304 -3.91847,8.26185c0.19673,5.53929 5.7791,9.54301 5.66831,17.61611c-0.0579,4.22462 -1.6598,7.28389 -3.84301,10.77082c-0.76915,1.2285 -1.60258,2.49324 -2.0715,3.87287c-1.0696,3.14749 -0.48123,6.78967 -1.11041,10.05912c-1.85745,9.64992 -9.36018,22.94567 -16.33815,29.74628c-5.52014,5.37971 -13.18495,8.76269 -20.96603,8.64666c-3.54643,-0.05312 -6.71809,-1.5554 -9.16345,-4.10995c-14.86641,-15.53229 -5.83883,-77.03093 -3.2095,-97.72135c1.63267,-12.94833 3.36246,-25.88412 5.18891,-38.80646l2.93116,-18.91755c0.39005,-2.47842 2.27371,-9.34787 0.49491,-11.26299c-1.33336,-1.43571 -4.68898,-1.32082 -6.00935,0.15843c-0.88313,0.98959 -1.3459,3.93989 -1.69195,5.27736c-1.26998,7.94909 -2.49233,15.90046 -3.73541,23.85091c-0.60046,3.83959 -0.83891,7.76284 -1.37941,11.59992l-3.24233,23.74764c-1.60099,11.29992 -3.27515,22.67302 -4.24924,34.06026c-0.90274,10.63609 -1.29347,21.30957 -1.17059,31.98328c0.0155,5.12097 1.04407,11.83632 0.89157,16.49157c-1.5978,2.07356 -3.50813,4.23374 -5.27485,6.16596c-2.01657,-1.77538 -3.60798,-3.50084 -5.46771,-5.42736c-0.08366,-3.58587 0.58153,-9.67363 0.73176,-13.65274c0.31322,-8.54658 0.13974,-17.1041 -0.51907,-25.63085c-0.59476,-6.82477 -1.29939,-13.63929 -2.11413,-20.44126c-1.17264,-10.87295 -2.4766,-21.73153 -3.9114,-32.57325c-0.63511,-4.67941 -1.40859,-9.33123 -2.05304,-14.0405c-1.59506,-11.25775 -2.85137,-22.67166 -5.07424,-33.81998c-0.93693,-4.69924 -0.08321,-9.66839 -6.30752,-9.00524c-0.93989,0.69005 -2.1424,1.54719 -2.14514,2.82629c-0.00821,3.66611 0.89772,7.71132 1.5057,11.325c0.75023,4.39103 1.42682,8.7946 2.02979,13.20843c3.2503,21.71398 6.10965,43.48495 8.57667,65.30198c1.76261,16.48085 6.03875,61.01056 -4.40243,73.84992c-2.51717,3.15068 -6.19628,5.15585 -10.20821,5.56413c-6.28678,0.57652 -14.74081,-2.55593 -19.54901,-6.88883c-8.46155,-7.62538 -15.19582,-19.55813 -18.06292,-30.5943c-0.92599,-2.91839 -0.37637,-8.69521 -1.53146,-11.31018c-2.85638,-6.46619 -6.23298,-8.57234 -5.59992,-16.36641c0.17781,-2.22105 0.74818,-4.39286 1.68442,-6.41467c1.41337,-3.02644 4.20023,-6.01847 3.88495,-9.56991c-0.52386,-5.90334 -7.54172,-9.34924 -6.78944,-19.84445c0.56877,-7.93746 6.7769,-12.27219 7.01877,-17.20122c0.16071,-3.27333 -1.5171,-6.46505 -1.76489,-9.73336c-0.40372,-5.32546 2.36512,-10.95889 4.42819,-15.72606c4.38032,-10.12181 9.37135,-20.24544 16.69856,-28.61102c7.48427,-8.54476 19.68944,-17.6446 31.35524,-18.43359z" fill="#aa632e"/><path d="M86.64552,77.09658c3.84324,-0.24916 4.63108,2.89331 5.92295,5.74833c2.9959,6.62052 3.79103,13.75464 1.58252,20.73693c-1.64111,5.18822 -1.13024,8.65555 1.28868,13.47834c2.26505,4.51664 3.69597,9.84985 3.2421,14.94255c-0.56512,9.80813 -6.91596,18.43678 -5.39088,28.48587c0.6481,5.36375 3.28518,10.1079 6.78898,14.13807c1.57956,1.81687 4.61649,4.60988 3.11877,7.23078c-0.59612,1.04316 -1.14187,1.4405 -2.27918,1.77538c-0.74658,0.20038 -1.94818,0.44225 -2.6364,0.12036c-3.38594,-1.58321 -8.19301,-9.2943 -9.62827,-12.39962c-4.59711,-9.94764 -4.02926,-19.00828 -0.24369,-29.05441c1.619,-4.2962 2.69772,-8.14012 2.6022,-12.77371c-0.13632,-6.61299 -4.29734,-11.33389 -5.33731,-17.77956c-1.30874,-8.11254 4.25995,-13.58184 1.17515,-21.90479c-0.90114,-2.43169 -3.83093,-8.14764 -2.97766,-10.42158c0.45228,-1.20524 1.66117,-1.8098 2.77204,-2.32295z" fill="#5b3317"/><path d="M188.09362,77.10707c1.9117,0.09027 3.42219,0.83184 3.91573,2.82834c0.09415,0.38777 0.13678,0.78625 0.1272,1.18518c-0.0791,3.00205 -3.16368,8.2598 -3.41375,12.78009c-0.35312,6.38617 2.88647,11.8712 1.79339,17.86755c-1.14415,6.27766 -5.50008,11.93024 -5.37242,18.68845c0.10828,5.73305 2.89878,11.27394 4.38237,16.79932c2.41345,8.98951 1.69491,18.18807 -3.05699,26.28214c-1.74301,2.969 -5.57576,9.68594 -9.05653,10.63541c-1.55129,-0.27242 -3.83731,-1.2636 -4.07302,-2.94392c-0.494,-3.51816 3.93169,-7.31831 5.74673,-10.21869c6.94559,-10.67234 3.36451,-21.34787 -0.31368,-32.19597c-3.95881,-11.6747 1.60691,-18.41831 4.23579,-29.00517c0.30661,-1.23397 -0.89681,-6.07272 -1.29643,-7.61649c-2.01748,-7.7943 -0.02758,-15.47188 3.29932,-22.59552c0.66998,-1.42682 1.61284,-2.09909 3.08229,-2.49073z" fill="#5b3317"/></g></svg></svg>